<svg width="194" height="90" viewBox="0 0 194 90" fill="none" xmlns="http://www.w3.org/2000/svg">
<g id="Asset-1">
<path id="Shape" fill-rule="evenodd" clip-rule="evenodd" d="M71.4679 59.809C71.6169 58.7795 71.5673 57.7317 71.3217 56.7206C71.0867 55.4042 73.453 54.5928 73.7432 56.2189C74.0335 57.8451 73.8196 60.2776 73.3432 61.2389C72.8667 62.2002 71.6832 63.2847 70.5375 62.7656C69.9307 62.4956 69.3903 62.0995 68.9532 61.6044C68.4069 63.536 67.2554 65.2536 65.1343 65.6231C63.8562 65.8934 62.536 65.4064 61.7525 64.3758L61.1604 65.5968C60.507 67.099 59.306 68.3054 57.7946 68.9776C56.3243 69.4788 54.6931 69.0731 53.6411 67.9446C53.5257 67.854 53.4458 67.7269 53.4148 67.5848C51.1628 70.8515 48.384 73.8905 44.7789 75.4766C43.7397 75.9062 42.6323 76.1531 41.507 76.2063C39.9845 80.3838 37.4226 84.1836 32.8333 85.7016C28.244 87.2196 24.2381 86.5601 19.2211 84.3201C14.2041 82.0802 8.18544 77.8589 7.77735 71.9417C7.59223 68.8148 8.36333 65.7043 9.99087 63.0128C8.13595 58.0662 9.49767 52.0803 11.9214 47.5062C14.6838 42.1352 18.7618 37.5278 23.7856 34.1017C27.4688 31.7088 31.6497 30.1619 36.0193 29.5753L35.4934 27.9902C35.2628 27.152 36.6587 26.35 37.074 27.3156C37.4367 27.9779 37.7245 28.6774 37.9324 29.4017L38.6395 29.2785C43.5932 28.8947 48.528 29.3125 53.0314 32.7598C57.5349 36.207 59.7222 41.6546 59.8255 47.2257C59.8204 49.4051 59.612 51.5796 59.2029 53.7216C61.0745 53.3158 63.9893 55.1235 64.3588 55.3785C64.7283 55.6335 65.4856 56.6992 63.8918 55.9389C62.298 55.1786 60.3391 54.6415 58.8137 55.6258C57.9775 58.8469 56.7045 61.9423 55.029 64.8284C55.0096 65.4729 55.2678 66.0951 55.7397 66.541C58.1278 68.1211 59.6684 64.4993 60.294 61.1966C59.9203 59.6603 59.9691 58.0532 60.4351 56.5411C60.6897 55.6983 62.2937 54.7003 62.6996 56.0667C63.1052 57.6855 63.1295 59.3746 62.7709 61.0047C62.7785 61.0474 62.8199 61.076 62.8633 61.0684C63.1077 61.984 64.2526 63.8604 65.3758 63.3454C66.4642 62.8463 66.6679 61.2265 66.802 60.1608L66.8146 60.0607C66.8904 58.7628 66.8478 57.4608 66.6873 56.1705C66.4523 54.8541 68.7677 54.2113 69.0303 55.6826C69.2929 57.1538 70.0079 59.3448 71.2504 60.4058L71.3289 60.3921L71.4679 59.809ZM29.5369 84.195C32.4879 83.9083 35.1863 82.4262 36.9873 80.1029C37.957 78.821 38.7142 77.3956 39.2305 75.8799C35.3267 74.8834 31.5866 70.2656 29.6104 67.8156C29.447 67.6131 29.2834 67.4091 29.1191 67.2041L29.1186 67.2034C27.2948 64.9286 25.384 62.5453 22.808 61.0168C19.4628 59.0423 15.1447 59.8632 12.7805 62.9232L12.702 62.9369C15.3052 67.9922 21.418 68.2047 26.5794 67.625C27.2079 67.5155 27.517 68.3399 26.5743 68.5041C26.2658 68.5579 25.9503 68.6214 25.6292 68.686L25.6291 68.686L25.629 68.686C24.9691 68.8189 24.2854 68.9565 23.5892 69.0241C19.0192 69.7403 13.9276 69.3499 11.2036 65.4333C10.4174 67.007 10.0326 68.7458 10.0827 70.4986C10.018 71.9417 10.3578 73.3742 11.0647 74.6388C11.8639 75.8081 12.7646 76.9067 13.7567 77.9222C16.1429 80.1015 18.95 81.7846 22.0108 82.8714C24.353 83.7408 26.9955 84.478 29.5369 84.195ZM40.5012 71.1186C40.3806 71.9823 40.209 72.8383 39.9872 73.6823C39.4424 73.5439 38.9167 73.3407 38.4218 73.0771C36.2497 71.8029 34.5469 69.7353 32.9193 67.759C32.5818 67.3491 32.2475 66.9432 31.913 66.5491C31.5896 66.1682 31.2585 65.7689 30.9189 65.3593L30.9185 65.3588C29.2123 63.3011 27.2912 60.9841 25.058 59.4429C22.1322 57.435 18.3589 57.0655 15.0869 58.4664C13.89 59.0356 12.7946 59.7925 11.8434 60.7075C10.5252 55.5898 12.8191 49.8428 15.4679 45.6302C18.1166 41.4177 23.1676 36.1482 28.4433 33.9521C31.0505 32.8298 33.8069 32.0808 36.6287 31.728C37.9607 36.6981 39.0218 41.735 39.8075 46.8173C41.1381 54.7262 41.9881 63.1179 40.5012 71.1186ZM42.3159 73.8115C43.7933 73.6596 45.1855 73.0542 46.296 72.0806C48.8572 70.0925 51.0018 67.632 52.6102 64.8364C52.746 62.4111 53.3984 60.0408 54.525 57.8801C55.0352 56.9021 55.6942 56.0069 56.4791 55.2256C57.7697 50.2132 58.008 44.7459 55.7255 40.1168C53.4748 35.436 48.9232 32.2426 43.7001 31.6798C42.058 31.4223 40.3899 31.3646 38.7332 31.508C40.2123 36.0892 41.3454 40.7724 42.1232 45.5191C43.4669 53.5035 44.3026 61.8157 43.1443 69.8371C42.8943 71.1574 42.6443 72.4776 42.3159 73.8115Z" fill="black"/>
<path id="Path" d="M76.3824 55.821C76.359 55.6894 76.2604 55.6389 76.237 55.5073C76.2137 55.3758 75.9748 54.5359 75.8061 54.0907L75.4284 53.4786L75.335 52.9524C75.3116 52.8208 75.3635 52.6083 75.2013 52.7045C75.0391 52.8007 75.479 52.249 75.1312 52.3098C74.7402 52.4776 74.4351 52.7498 74.2799 53.0692C74.2397 53.3476 73.9854 53.9346 73.9568 54.2787C73.9283 54.6228 73.918 55.5741 73.8492 56.1966C73.7897 57.3371 74.3697 58.3964 75.4417 59.1054C75.8014 59.2427 76.2489 59.2099 76.6078 59.0197C76.9667 58.8296 77.1796 58.5127 77.1625 58.1938C77.0307 57.3726 76.7688 56.5759 76.3824 55.821Z" fill="black"/>
<path id="Path_2" d="M91.9735 55.7304C91.7878 56.4918 91.5398 57.2332 91.2322 57.9466C89.7912 57.0754 88.7256 55.3359 87.9674 53.6229C87.9777 52.9052 87.9511 52.1866 87.8876 51.4702C87.4399 48.0979 86.6562 43.2597 83.838 41.0245C83.1265 40.4268 81.9301 41.3585 82.0087 42.2274C82.4387 45.8536 83.4255 49.3945 84.93 52.7101C85.1597 53.1514 85.4171 53.7483 85.6744 54.3453C85.6352 54.9253 85.5606 55.5013 85.4511 56.0696C85.0948 57.8974 84.6608 60.1401 83.5473 61.5387L83.474 61.5515C83.2965 61.3516 83.1323 61.139 82.9826 60.9153C82.2478 59.76 83.0029 57.6216 84.1079 57.0269C85.2129 56.4323 84.4652 56.4829 84.1579 56.4564C82.5616 56.4149 81.3747 57.8263 80.8897 59.3557C80.3719 60.8356 80.8567 62.5212 82.0765 63.4814C84.4449 65.3137 86.2029 61.1541 86.7336 59.4563C87.2643 57.7584 87.1729 58.0954 87.3558 57.4214C88.3127 58.9084 89.7103 60.0213 91.3215 60.5792C92.0289 60.6896 92.6922 60.23 92.8711 59.5054C93.1635 58.1703 92.8094 57.0285 92.8679 55.6541C92.9264 54.2796 92.065 55.3934 91.9735 55.7304Z" fill="black"/>
<path id="Path_3" d="M115.135 44.9597C114.841 44.6913 114.245 45.0355 114.393 45.4094C115.376 47.8176 115.228 50.5309 113.988 52.8382C112.828 55.0321 110.811 56.6826 108.396 57.4161C103.924 58.5986 100.126 54.7847 98.0447 51.3901C95.9635 47.9955 94.9056 42.5024 94.9168 37.9417C94.928 33.3811 95.6315 29.0192 97.9203 25.2596C100.209 21.4999 102.703 20.7435 106.005 21.765C109.307 22.7866 111.617 26.5411 112.209 29.8764C112.278 30.2642 112.742 30.103 112.781 29.8564C113.8 24.9594 109.888 20.0457 104.993 19.303C100.098 18.5603 96.2847 22.9866 94.5289 26.9729C92.8462 31.2708 92.1493 35.8702 92.4872 40.4464C92.6973 45.0831 94.0621 49.5928 96.4638 53.5863C99.2296 58.0607 104.286 61.0946 109.696 59.1879C115.106 57.2812 119.829 49.6564 115.135 44.9597Z" fill="black"/>
<path id="Path_4" d="M126.472 46.6881C125.19 42.8161 121.612 40.0385 117.297 39.5663C109.821 38.6533 101.692 43.6465 97.9891 49.6107C97.7964 49.9618 98.4011 50.0147 98.6075 49.7405C101.547 45.7189 106.014 42.8891 111.068 41.8467C115.495 40.9131 121.198 41.8984 123.352 45.8853C125.506 49.8722 125.462 53.4505 125.595 57.0768C125.745 59.0251 125.548 60.99 125.012 62.8916C124.681 63.9017 124.062 65.2003 123.045 64.2674C122.029 63.3344 120.466 59.3235 119.781 56.9043C119.617 56.4571 118.751 56.8467 118.819 57.2315C118.922 59.0048 119.15 60.7673 119.501 62.5075C119.953 64.0946 120.624 66.4367 122.658 66.8742C124.692 67.3116 126.04 65.8061 126.825 64.4786C127.61 63.151 127.97 60.8665 128.081 59.1014C128.296 54.8934 127.752 50.6968 126.472 46.6881Z" fill="black"/>
<path id="Shape_2" fill-rule="evenodd" clip-rule="evenodd" d="M188.285 32.8027C188.309 32.4777 188.907 32.1328 189.057 32.5077C189.938 35.5245 188.21 38.694 185.142 39.6851C182.639 40.4423 180.602 39.1936 178.632 37.8533C178.002 39.4064 176.944 40.8737 175.22 40.4526C174.65 40.3734 174.13 40.0931 173.76 39.6647C173.29 40.4596 172.482 41.0117 171.555 41.1717C171.311 41.9632 170.792 42.649 170.087 43.1114C168.401 44.2875 166.287 43.5333 164.612 42.4622C164.246 42.7779 163.801 42.9938 163.322 43.0881C161.644 44.1044 159.584 44.3158 157.735 43.6611L157.363 43.8863C156.572 44.254 155.651 44.2361 154.881 43.838C154.703 45.0192 153.678 45.909 152.453 45.945C151.411 45.9458 150.435 45.4598 149.829 44.6384C149.13 46.1838 147.773 47.3578 146.115 47.8519C144.369 48.2363 142.976 47.3567 142.006 46.0824C141.058 46.8521 140.007 47.4938 138.883 47.9899C137.792 48.3406 136.231 48.3722 135.797 47.3253C135.363 46.2783 135.808 45.0781 136.215 44.1251C136.542 43.3359 136.93 42.5714 137.374 41.8383L136.078 41.503C135.368 41.2257 134.433 41.068 133.891 41.7239C134.161 42.3639 134.389 43.0207 134.571 43.69C135.13 45.4368 135.626 47.7559 134.516 49.3927C134.349 49.7674 134.007 50.0415 133.597 50.1288C133.187 50.2161 132.761 50.1059 132.451 49.8329C130.383 47.9482 130.024 44.0819 131.381 41.5199C131.161 41.0853 130.894 40.6749 130.585 40.2955C129.737 39.2405 128.132 38.5582 127.623 40.3307C127.115 42.1032 127.635 44.0973 128.274 45.8302C128.344 46.219 127.693 46.7333 127.45 46.2946C126.384 44.4759 125.349 41.4488 126.469 39.4093C126.879 38.6083 127.616 38.0112 128.499 37.7656C129.382 37.5201 130.328 37.6489 131.104 38.1202C131.757 38.6377 132.335 39.2379 132.824 39.9051C134.191 38.7848 135.78 38.9088 137.372 39.5133L138.936 39.9623C139.679 39.1072 140.649 38.4665 141.739 38.1105C142.899 37.7124 144.182 38.1577 144.815 39.1779C145.503 40.2608 144.431 41.6503 143.381 42.2343C142.332 42.7246 141.128 42.7903 140.033 42.4171L139.713 42.4728L138.684 44.0957C138.398 44.6339 138.195 45.2096 138.081 45.8044C138.098 45.8955 138.077 45.938 138.06 45.9732C138.048 45.9981 138.037 46.0194 138.043 46.0516L138.123 46.0377L138.961 45.651C139.939 45.0539 140.867 44.3827 141.736 43.6437C141.789 43.6055 141.846 43.5607 141.905 43.5136L141.905 43.5135C142.34 43.17 142.937 42.6977 143.471 43.662C144.079 44.7588 145.305 46.5497 146.658 45.3516C147.511 44.5657 148.132 43.571 148.453 42.4727C147.597 40.4361 147.126 38.2637 147.062 36.0599C146.745 33.3304 147.13 30.563 148.182 28.0066C148.551 27.3008 150.175 26.697 150.449 27.7718C151.206 30.4778 151.566 33.2764 151.519 36.0848C151.591 38.0515 151.416 40.0207 150.998 41.9489C151.247 42.5098 151.646 42.9942 152.155 43.3509L152.638 43.7477C152.804 43.1105 152.854 42.4504 152.785 41.7977C152.765 40.7589 154.187 39.9496 154.993 40.7713L155.49 41.246C154.307 37.844 158.111 34.2139 161.31 33.6563C163.083 33.4273 165.086 33.5594 166.243 34.9614C166.313 35.015 166.356 35.0943 166.364 35.1807C166.412 35.0784 166.42 34.9632 166.389 34.8557C166.381 34.8146 166.326 34.765 166.271 34.7149C166.117 34.5756 165.959 34.4329 166.813 34.461C167.71 34.4904 168.015 35.34 168.288 36.1002L168.288 36.1003L168.288 36.1003C168.369 36.3246 168.447 36.5411 168.536 36.7265L168.616 36.7126C168.574 36.5848 168.524 36.4596 168.467 36.3377C168.411 36.0266 168.916 35.6179 169.131 35.9011C169.975 36.9537 170.702 38.09 171.302 39.2913C172.196 39.2157 172.468 37.9656 172.433 36.849C172.252 36.2953 172.15 35.7197 172.128 35.1381C172.139 34.9361 172.187 34.7374 172.271 34.5519L172.629 34.2489C173.2 33.7485 174.118 33.348 174.392 34.4228C174.446 34.6345 174.496 34.8812 174.551 35.146L174.551 35.1462L174.551 35.1463C174.772 36.2256 175.056 37.608 175.885 38.1717C175.929 38.164 175.971 38.1926 175.979 38.2355C176.023 38.2278 176.053 38.1868 176.045 38.1438C176.456 37.4261 176.735 36.6448 176.87 35.835C176.964 35.4283 177.247 35.086 177.635 34.9085C178.023 34.731 178.472 34.7382 178.852 34.9282C179.256 35.1847 179.641 35.5037 180.037 35.8319C181.098 36.7108 182.237 37.6545 184.034 37.6331C186.502 37.6037 188.339 34.9581 188.285 32.8027ZM142.453 40.3178L142.265 40.1903C141.932 40.2183 141.611 40.3293 141.334 40.5127C141.855 40.6622 142.349 40.6563 142.613 40.2899L142.453 40.3178ZM164.919 39.109C164.887 39.3599 164.788 39.5984 164.63 39.8C164.25 39.8773 163.908 40.0782 163.661 40.3694L162.572 41.1996C161.676 40.7952 160.109 39.8668 159.863 38.9486C159.686 38.29 159.585 38.525 159.487 38.7494C159.449 38.8378 159.411 38.9246 159.37 38.9545L159.102 38.8409C158.686 38.5266 158.094 38.5613 157.716 38.9223C158.053 37.582 159.712 36.252 160.869 35.8101C163.33 34.8209 165.608 36.5062 164.919 39.109ZM166.624 40.3252L166.36 40.6915C167.283 41.2511 168.54 41.8326 169.003 41.1917C169.134 41.0742 169.222 40.9182 169.253 40.7478C168.683 40.4489 168.206 40.0069 167.871 39.4674C167.738 39.2575 167.631 39.0428 167.518 38.8136C167.436 38.6493 167.351 38.4776 167.25 38.2947C167.216 39.0105 167.001 39.7081 166.624 40.3252Z" fill="black"/>
</g>
</svg>
