<svg width="189" height="90" viewBox="0 0 189 90" fill="none" xmlns="http://www.w3.org/2000/svg">
<path fill-rule="evenodd" clip-rule="evenodd" d="M66.8658 59.4737C67.0164 58.435 66.9679 57.3781 66.7228 56.3585C66.4887 55.0309 68.8631 54.2096 69.1523 55.8496C69.4415 57.4896 69.2241 59.9437 68.745 60.9139C68.266 61.8841 67.0776 62.9794 65.9291 62.4572C65.3207 62.1855 64.7791 61.7866 64.3413 61.2878C63.7911 63.2369 62.634 64.9708 60.506 65.3461C59.2238 65.6202 57.9001 65.1305 57.1155 64.0918L56.5202 65.3242C55.863 66.8403 54.6569 68.0586 53.1402 68.7385C51.6648 69.2458 50.0292 68.8385 48.9753 67.7013C48.8597 67.6101 48.7797 67.482 48.7488 67.3386C46.486 70.6365 43.6953 73.7054 40.0774 75.3096C39.0345 75.7441 37.9235 75.9945 36.7947 76.0495C35.2626 80.2653 32.6884 84.1012 28.0834 85.6379C23.4784 87.1746 19.4612 86.514 14.4317 84.2604C9.40221 82.0068 3.37038 77.7558 2.96812 71.7874C2.78617 68.6334 3.56331 65.4949 5.19899 62.778C3.34436 57.7904 4.71734 51.7506 7.15388 47.1337C9.93106 41.7126 14.0268 37.0602 19.0699 33.5981C22.7671 31.1801 26.9625 29.6147 31.346 29.0178L30.8204 27.4195C30.5901 26.5743 31.9912 25.7636 32.4067 26.7372C32.7696 27.4048 33.0575 28.1101 33.2651 28.8405L33.9745 28.7154C38.9436 28.3223 43.8929 28.738 48.4058 32.2101C52.9188 35.6821 55.1063 41.1746 55.2032 46.7942C55.1955 48.9927 54.9838 51.1864 54.5709 53.3477C56.4487 52.936 59.3701 54.7561 59.7405 55.0129C60.1108 55.2697 60.8691 56.3439 59.2714 55.5788C57.6737 54.8137 55.7095 54.2742 54.1783 55.2689C53.3358 58.5191 52.0552 61.6431 50.3711 64.5563C50.3509 65.2064 50.6091 65.8337 51.0819 66.2831C53.4754 67.8741 55.025 64.2189 55.6564 60.8866C55.2835 59.3373 55.3342 57.7162 55.8035 56.1902C56.0599 55.3398 57.6699 54.3312 58.0754 55.7091C58.4803 57.3415 58.5027 59.0453 58.141 60.69C58.1486 60.7332 58.1901 60.7619 58.2336 60.7542C58.4777 61.6775 59.6238 63.569 60.751 63.0482C61.8433 62.5434 62.0496 60.9093 62.1853 59.8341L62.1981 59.7331C62.2757 58.4237 62.2345 57.1104 62.075 55.8091C61.8409 54.4815 64.1641 53.8303 64.4257 55.3141C64.6874 56.7979 65.402 59.0071 66.6469 60.076L66.7257 60.0621L66.8658 59.4737ZM24.8092 84.1216C27.7696 83.8289 30.4782 82.3305 32.2876 79.9846C33.2618 78.6903 34.023 77.2515 34.5428 75.7218C30.6281 74.7211 26.8819 70.067 24.9024 67.5977C24.7387 67.3934 24.5746 67.1875 24.4099 66.9808C22.5832 64.6881 20.6693 62.286 18.0872 60.747C14.7339 58.7591 10.4015 59.5924 8.02637 62.6821L7.94755 62.696C10.5528 67.7927 16.6843 68 21.8623 67.4091C22.4929 67.2979 22.802 68.1291 21.8562 68.2959C21.5466 68.3505 21.23 68.415 20.9077 68.4806C20.2456 68.6154 19.5596 68.755 18.8612 68.824C14.2762 69.5519 9.16931 69.164 6.44156 65.2162C5.65104 66.8046 5.26301 68.5592 5.31118 70.3275C5.24455 71.7833 5.58363 73.228 6.29123 74.503C7.09153 75.6816 7.99371 76.7888 8.98763 77.8122C11.3786 80.0078 14.1924 81.7025 17.2614 82.7952C19.6098 83.6695 22.2596 84.4101 24.8092 84.1216ZM35.807 70.909C35.685 71.7807 35.5117 72.6448 35.2881 73.4968C34.7416 73.3578 34.2143 73.1533 33.718 72.8879C31.5398 71.6046 29.8335 69.52 28.2027 67.5276L28.2025 67.5274C27.8644 67.1143 27.5294 66.7051 27.1942 66.3079C26.8701 65.9237 26.5382 65.521 26.1977 65.1078C24.488 63.0333 22.563 60.6974 20.3239 59.1448C17.3902 57.122 13.6042 56.7535 10.319 58.1711C9.1173 58.7469 8.01717 59.512 7.06155 60.4365C5.74485 55.2735 8.05365 49.4713 10.7167 45.2171C13.3797 40.9629 18.4546 35.6392 23.7514 33.4169C26.3691 32.2812 29.136 31.5222 31.9681 31.1628C33.2988 36.1767 34.3576 41.2584 35.14 46.3863C36.4657 54.3659 37.3086 62.8334 35.807 70.909ZM37.5914 73.6543C39.0749 73.4993 40.4734 72.8865 41.5895 71.9025C44.1635 69.8927 46.3197 67.4066 47.9378 64.5828C48.077 62.1345 48.735 59.7412 49.8687 57.5588C50.3821 56.5711 51.0448 55.6667 51.8338 54.8771C53.1356 49.8161 53.3814 44.2971 51.0952 39.6272C48.8411 34.9052 44.275 31.6872 39.0315 31.1252C37.3831 30.8672 35.7083 30.811 34.0448 30.9577C35.5244 35.5802 36.6565 40.306 37.4318 45.0964C38.7713 53.1542 39.6004 61.5435 38.4279 69.6417C38.1753 70.9746 37.9227 72.3075 37.5914 73.6543Z" fill="black"/>
<path d="M71.7742 55.4891C71.7508 55.3563 71.6519 55.3053 71.6285 55.1724C71.6051 55.0396 71.3657 54.1916 71.1966 53.742L70.818 53.124L70.7243 52.5927C70.7009 52.4598 70.7529 52.2452 70.5903 52.3424C70.4278 52.4395 70.8687 51.8824 70.5201 51.9439C70.1282 52.1132 69.8224 52.3881 69.6668 52.7107C69.6265 52.9917 69.3716 53.5845 69.343 53.9319C69.3144 54.2794 69.304 55.2399 69.2351 55.8684C69.1755 57.0199 69.7568 58.0895 70.8314 58.8055C71.1919 58.9441 71.6404 58.9109 72.0002 58.7189C72.3599 58.5269 72.5732 58.2069 72.5561 57.885C72.4241 57.0558 72.1615 56.2514 71.7742 55.4891Z" fill="black"/>
<path d="M87.4012 55.3977C87.215 56.1664 86.9665 56.9151 86.6582 57.6354C85.2138 56.7557 84.1457 54.9994 83.3857 53.2697C83.3961 52.5451 83.3694 51.8195 83.3058 51.0961C82.8571 47.691 82.0715 42.8059 79.2467 40.549C78.5336 39.9455 77.3344 40.8862 77.4132 41.7636C77.8442 45.425 78.8333 49.0003 80.3413 52.3481C80.5716 52.7936 80.8295 53.3964 81.0875 53.9991C81.0482 54.5848 80.9734 55.1664 80.8636 55.7401C80.5065 57.5857 80.0715 59.8501 78.9554 61.2623L78.8819 61.2753C78.704 61.0734 78.5394 60.8588 78.3894 60.6329C77.6528 59.4663 78.4097 57.3072 79.5173 56.7068C80.6248 56.1064 79.8754 56.1575 79.5674 56.1308C77.9673 56.0888 76.7777 57.5139 76.2916 59.0582C75.7726 60.5525 76.2586 62.2544 77.4812 63.2239C79.855 65.0741 81.6172 60.874 82.1491 59.1597C82.681 57.4454 82.5894 57.7856 82.7727 57.1051C83.7319 58.6066 85.1327 59.7302 86.7477 60.2935C87.4567 60.405 88.1215 59.9409 88.3008 59.2094C88.594 57.8612 88.239 56.7084 88.2977 55.3206C88.3563 53.9328 87.4929 55.0574 87.4012 55.3977Z" fill="black"/>
<path d="M110.617 44.5224C110.322 44.2514 109.725 44.599 109.874 44.9765C110.858 47.4081 110.71 50.1477 109.468 52.4774C108.304 54.6926 106.283 56.3591 103.862 57.0997C99.3801 58.2937 95.573 54.4428 93.4869 51.0153C91.4008 47.5877 90.3404 42.0412 90.3517 37.4363C90.3629 32.8314 91.068 28.4272 93.3621 24.631C95.6562 20.8349 98.1558 20.0711 101.466 21.1026C104.776 22.134 107.091 25.925 107.684 29.2926C107.753 29.6842 108.219 29.5214 108.257 29.2724C109.278 24.3279 105.358 19.3665 100.451 18.6166C95.5445 17.8667 91.7227 22.336 89.9628 26.3609C88.2762 30.7006 87.5777 35.3446 87.9164 39.9653C88.127 44.647 89.495 49.2005 91.9022 53.2328C94.6745 57.7506 99.7422 60.814 105.165 58.8887C110.588 56.9635 115.322 49.2647 110.617 44.5224Z" fill="black"/>
<path d="M121.98 46.2676C120.695 42.358 117.109 39.5534 112.784 39.0766C105.29 38.1548 97.1431 43.1964 93.4312 49.2186C93.238 49.5731 93.8441 49.6265 94.051 49.3496C96.9972 45.289 101.475 42.4316 106.541 41.3791C110.978 40.4365 116.694 41.4314 118.853 45.457C121.012 49.4825 120.968 53.0956 121.102 56.7572C121.252 58.7244 121.054 60.7084 120.517 62.6284C120.186 63.6483 119.564 64.9595 118.546 64.0175C117.527 63.0755 115.961 59.0256 115.274 56.583C115.109 56.1314 114.241 56.5248 114.309 56.9133C114.412 58.7038 114.641 60.4834 114.993 62.2405C115.446 63.843 116.119 66.2079 118.157 66.6496C120.196 67.0913 121.548 65.5712 122.334 64.2308C123.121 62.8903 123.481 60.5836 123.593 58.8014C123.809 54.5526 123.263 50.3152 121.98 46.2676Z" fill="black"/>
<path fill-rule="evenodd" clip-rule="evenodd" d="M183.945 32.218C183.97 31.8905 184.57 31.5424 184.719 31.9199C185.6 34.9581 183.863 38.153 180.786 39.1551C178.276 39.9209 176.236 38.6654 174.262 37.3174C173.628 38.8828 172.567 40.3622 170.839 39.94C170.267 39.861 169.747 39.5791 169.376 39.148C168.904 39.9493 168.093 40.5065 167.164 40.6687C166.918 41.4665 166.397 42.158 165.69 42.6246C163.998 43.8114 161.88 43.0541 160.202 41.9771C159.835 42.2955 159.388 42.5135 158.908 42.609C157.225 43.6349 155.159 43.8503 153.307 43.1929L152.933 43.4203C152.14 43.7916 151.217 43.7746 150.445 43.3745C150.266 44.5647 149.237 45.4623 148.009 45.5C146.965 45.502 145.987 45.0136 145.38 44.1868C144.677 45.7444 143.315 46.9288 141.652 47.4285C139.902 47.8178 138.506 46.9333 137.536 45.6507C136.584 46.4272 135.53 47.0749 134.403 47.576C133.308 47.9306 131.743 47.9643 131.309 46.9101C130.876 45.8559 131.324 44.6463 131.733 43.6857C132.062 42.8903 132.451 42.1197 132.897 41.3806L131.598 41.0443C130.887 40.7658 129.95 40.608 129.405 41.2694C129.676 41.9139 129.903 42.5753 130.085 43.2494C130.643 45.0085 131.138 47.3442 130.024 48.9944C129.855 49.3721 129.512 49.6486 129.101 49.737C128.69 49.8255 128.263 49.715 127.953 49.4403C125.882 47.544 125.526 43.6495 126.89 41.0669C126.67 40.6294 126.403 40.2162 126.093 39.8343C125.245 38.7725 123.636 38.0871 123.124 39.8733C122.612 41.6596 123.132 43.6678 123.77 45.4128C123.839 45.8044 123.187 46.3233 122.943 45.8816C121.877 44.0507 120.843 41.0024 121.969 38.9464C122.38 38.139 123.12 37.5367 124.005 37.2882C124.891 37.0398 125.839 37.1684 126.616 37.6423C127.27 38.1628 127.849 38.7669 128.339 39.4385C129.71 38.3082 131.303 38.4313 132.898 39.0384L134.465 39.4888C135.212 38.6265 136.184 37.9799 137.277 37.62C138.441 37.2176 139.726 37.6647 140.36 38.6917C141.048 39.7818 139.972 41.1829 138.919 41.7725C137.866 42.2676 136.659 42.3353 135.563 41.9605L135.242 42.0171L134.207 43.6532C133.921 44.1957 133.716 44.7759 133.602 45.3752C133.618 45.467 133.597 45.5099 133.58 45.5454C133.568 45.5705 133.557 45.5919 133.563 45.6244L133.643 45.6102L134.484 45.2197C135.464 44.617 136.395 43.9397 137.268 43.1943C137.321 43.1557 137.378 43.1106 137.438 43.063L137.438 43.063L137.438 43.0629C137.874 42.7163 138.473 42.2398 139.007 43.2107C139.615 44.3149 140.843 46.1176 142.2 44.909C143.057 44.1163 143.68 43.1134 144.003 42.0067C143.147 39.956 142.677 37.768 142.616 35.5479C142.302 32.7985 142.691 30.0102 143.749 27.4336C144.119 26.7221 145.748 26.1119 146.021 27.1944C146.777 29.9195 147.135 32.7384 147.084 35.5677C147.154 37.5489 146.977 39.533 146.555 41.4759C146.804 42.0408 147.204 42.5283 147.714 42.8869L148.197 43.2862C148.364 42.644 148.415 41.979 148.347 41.3215C148.328 40.275 149.755 39.4581 150.562 40.2849L151.059 40.7625C149.877 37.3368 153.695 33.6752 156.902 33.1097C158.68 32.877 160.687 33.0076 161.846 34.4186C161.916 34.4725 161.96 34.5524 161.967 34.6395C162.015 34.5363 162.024 34.4203 161.992 34.312C161.985 34.2706 161.93 34.2207 161.874 34.1703C161.72 34.0302 161.562 33.8866 162.418 33.9139C163.317 33.9425 163.622 34.798 163.895 35.5635C163.976 35.7894 164.054 36.0075 164.143 36.1942L164.223 36.18C164.181 36.0514 164.131 35.9253 164.074 35.8025C164.019 35.4892 164.525 35.0769 164.74 35.362C165.585 36.4214 166.313 37.5652 166.913 38.7747C167.809 38.6975 168.083 37.4378 168.05 36.3129C167.869 35.7554 167.766 35.1756 167.746 34.5897C167.757 34.3862 167.805 34.186 167.89 33.999L168.249 33.6934C168.821 33.1886 169.742 32.784 170.016 33.8664C170.07 34.0797 170.12 34.3281 170.174 34.5949L170.174 34.5951C170.395 35.6822 170.678 37.0745 171.508 37.6414C171.552 37.6336 171.594 37.6623 171.602 37.7056C171.646 37.6978 171.676 37.6564 171.668 37.6131C172.081 36.8897 172.362 36.1022 172.498 35.2862C172.593 34.8764 172.877 34.5313 173.266 34.352C173.655 34.1726 174.106 34.1794 174.486 34.3704C174.891 34.6283 175.277 34.9493 175.674 35.2794C176.736 36.1635 177.876 37.1129 179.678 37.0892C182.153 37.0567 183.997 34.3894 183.945 32.218ZM137.999 39.835L137.811 39.7066C137.476 39.7353 137.154 39.8476 136.876 40.0329C137.399 40.183 137.894 40.1765 138.159 39.8067L137.999 39.835ZM160.518 38.6101C160.486 38.8632 160.386 39.1039 160.228 39.3074C159.846 39.3859 159.503 39.5888 159.254 39.8829L158.162 40.7216C157.264 40.3146 155.693 39.3801 155.447 38.4543C155.271 37.7902 155.168 38.0273 155.07 38.2538C155.032 38.343 154.994 38.4307 154.952 38.4608L154.684 38.3466C154.267 38.03 153.673 38.0658 153.294 38.4302C153.634 37.078 155.298 35.7346 156.46 35.2876C158.929 34.2869 161.212 35.984 160.518 38.6101ZM162.224 39.8439L161.958 40.2137C162.884 40.7773 164.145 41.3626 164.609 40.7154C164.741 40.5966 164.829 40.4391 164.861 40.2672C164.289 39.9662 163.811 39.5208 163.476 38.9769C163.343 38.7652 163.236 38.5487 163.122 38.3175C163.041 38.1519 162.956 37.9787 162.854 37.7943C162.82 38.5166 162.603 39.2208 162.224 39.8439Z" fill="black"/>
</svg>
