<svg width="24" height="22" viewBox="0 0 24 22" fill="none" xmlns="http://www.w3.org/2000/svg">
<path d="M11.9717 0.290528L15.2515 6.95449L22.5916 8.01885C22.6847 8.03262 22.7721 8.07209 22.844 8.13282C22.9158 8.19355 22.9692 8.27313 22.9982 8.36259C23.0272 8.45204 23.0305 8.54783 23.0079 8.63917C22.9853 8.7305 22.9376 8.81375 22.8702 8.87953L17.5563 14.0708L18.8057 21.3966C18.8218 21.4892 18.8116 21.5845 18.7762 21.6717C18.7409 21.7588 18.6818 21.8344 18.6056 21.8898C18.5295 21.9452 18.4394 21.9782 18.3455 21.9851C18.2516 21.992 18.1576 21.9724 18.0744 21.9287L11.5103 18.4746L4.942 21.9384C4.85871 21.9824 4.76477 22.0022 4.67084 21.9955C4.57692 21.9889 4.48678 21.9561 4.41066 21.9008C4.33455 21.8455 4.27552 21.77 4.24027 21.6829C4.20503 21.5957 4.19499 21.5004 4.2113 21.4078L5.46966 14.0788L0.160539 8.89458C0.093222 8.82888 0.0456346 8.7457 0.0231361 8.6544C0.000637601 8.56309 0.00412166 8.4673 0.033196 8.3778C0.0622702 8.2883 0.11578 8.20866 0.187699 8.14783C0.259618 8.08701 0.34709 8.04742 0.440263 8.03352L7.78165 6.95944L11.0711 0.291125C11.1121 0.206624 11.1761 0.13534 11.2558 0.085439C11.3354 0.0355383 11.4276 0.00903904 11.5215 0.00897677C11.6155 0.00891449 11.7076 0.0352917 11.7872 0.0850869C11.8668 0.134882 11.9308 0.206081 11.9717 0.290528Z" fill="#FDE047"/>
</svg>
